<?xml version="1.0" encoding="utf-8"?>
<!-- Generator: Adobe Illustrator 19.1.0, SVG Export Plug-In . SVG Version: 6.00 Build 0)  -->
<!DOCTYPE svg PUBLIC "-//W3C//DTD SVG 1.1//EN" "http://www.w3.org/Graphics/SVG/1.1/DTD/svg11.dtd">
<svg version="1.1" id="Tink" xmlns="http://www.w3.org/2000/svg" xmlns:xlink="http://www.w3.org/1999/xlink" x="0px" y="0px"
	 viewBox="384 -112 2048 1024" style="enable-background:new 384 -112 2048 1024;" xml:space="preserve">
<style type="text/css">
	.st0{fill:#007B32;}
	.st1{fill:#FFFFFF;}
	.st2{fill:#CF0039;}
	.st3{fill:#F28B00;}
</style>
<rect x="1408" y="-112" class="st0" width="1024" height="1024"/>
<circle class="st1" cx="2175.7" cy="247.9" r="89.9"/>
<path class="st1" d="M2123.2,336.1c-9,37.4-42.7,65.4-82.5,65.4c-47.2,0-84.9-38.2-84.9-84.9c0-47.2,38.2-84.9,84.9-84.9
	c11,0,21.1,2.1,30.5,5.7c-49.6-59.4-124-97.6-207.3-97.6c-148.8,0-269.5,120.7-269.5,269.5s120.7,269.5,269.5,269.5
	s269.5-120.7,269.5-269.5C2133.4,384.1,2129.7,359.2,2123.2,336.1z"/>
<rect x="384" y="-112" class="st2" width="1024" height="1024"/>
<path class="st1" d="M1030,660.6l-40.9-116.1H798.6l-40.9,116.1H646.1l199.4-520.8h101.2l197.9,520.8H1030z M919.9,351.1
	c-10.4-30.5-20.8-61.7-26-81.1c-5.2,19.3-15.6,50.6-26,81.1l-33.5,94.5h119L919.9,351.1z"/>
<path class="st3" d="M624.6,414.6c-2.5,7.3-10.4,11.2-17.7,8.8l-145.2-48.8c-7.3-2.4-11.2-10.4-8.8-17.7L465,321
	c2.5-7.3,10.4-11.2,17.7-8.8L627.8,361c7.3,2.5,11.2,10.4,8.8,17.7L624.6,414.6z"/>
<path class="st3" d="M616.6,528.6c2.4,7.3-1.5,15.2-8.8,17.7L504.4,583c-7.3,2.4-15.2-1.5-17.7-8.8l-12.1-36
	c-2.4-7.3,1.5-15.2,8.8-17.7l103.4-36.7c7.3-2.4,15.2,1.5,17.7,8.8L616.6,528.6z"/>
<path class="st3" d="M588.2,196.5c-6.1,4.7-7.2,13.5-2.5,19.6l65.6,88c4.7,6.1,13.5,7.2,19.6,2.5l30-23.2c6.1-4.7,7.2-13.5,2.5-19.6
	l-65.6-88.1c-4.7-6.1-13.5-7.2-19.6-2.5L588.2,196.5z"/>
<path class="st3" d="M1165.1,414.6c2.5,7.3,10.4,11.2,17.7,8.8l145.2-48.8c7.3-2.4,11.2-10.4,8.8-17.7l-12.1-36
	c-2.5-7.3-10.4-11.2-17.7-8.8L1161.8,361c-7.3,2.5-11.2,10.4-8.8,17.7L1165.1,414.6z"/>
<path class="st3" d="M1173,528.6c-2.5,7.3,1.5,15.2,8.8,17.7l103.5,36.7c7.3,2.4,15.2-1.5,17.7-8.8l12.1-36
	c2.5-7.3-1.5-15.2-8.8-17.7l-103.4-36.7c-7.3-2.4-15.2,1.5-17.7,8.8L1173,528.6z"/>
<path class="st3" d="M1201.5,196.5c6.1,4.7,7.2,13.5,2.5,19.6l-65.6,88c-4.7,6.1-13.5,7.2-19.6,2.5l-30-23.2
	c-6.1-4.7-7.2-13.5-2.5-19.6l65.6-88.1c4.7-6.1,13.5-7.2,19.6-2.5L1201.5,196.5z"/>
</svg>
