<?xml version="1.0" encoding="utf-8"?>
<!-- Generator: Adobe Illustrator 19.1.0, SVG Export Plug-In . SVG Version: 6.00 Build 0)  -->
<!DOCTYPE svg PUBLIC "-//W3C//DTD SVG 1.1//EN" "http://www.w3.org/Graphics/SVG/1.1/DTD/svg11.dtd">
<svg version="1.1" id="Tink" xmlns="http://www.w3.org/2000/svg" xmlns:xlink="http://www.w3.org/1999/xlink" x="0px" y="0px"
	 viewBox="-127 -112 2048 1024" style="enable-background:new -127 -112 2048 1024;" xml:space="preserve">
<style type="text/css">
	.st0{fill:#416A50;}
	.st1{fill:#FFFFFF;}
	.st2{fill:#CF0039;}
	.st3{fill:#F28B00;}
</style>
<rect x="897" y="-112" class="st0" width="1024" height="1024"/>
<circle class="st1" cx="1728.5" cy="206" r="113.2"/>
<path class="st1" d="M1662.4,317.1c-11.3,47.1-53.8,82.4-103.9,82.4c-59.4,0-107-48.1-107-107c0-59.4,48.1-107,107-107
	c13.8,0,26.6,2.6,38.4,7.2c-62.5-74.8-156.2-122.9-261.1-122.9c-187.4,0-339.5,152.1-339.5,339.5s152.1,339.5,339.5,339.5
	s339.5-152.1,339.5-339.5C1675.2,377.5,1670.6,346.2,1662.4,317.1z"/>
<rect x="-124" y="-110.3" class="st2" width="1024" height="1024"/>
<path class="st1" d="M522,662.3l-40.9-116.1H290.6l-40.9,116.1H138.1l199.4-520.8h101.2l197.9,520.8H522z M411.9,352.8
	c-10.4-30.5-20.8-61.7-26-81.1c-5.2,19.3-15.6,50.6-26,81.1l-33.5,94.5h119L411.9,352.8z"/>
<path class="st3" d="M116.6,416.3c-2.5,7.3-10.4,11.2-17.7,8.8l-145.2-48.8c-7.3-2.4-11.2-10.4-8.8-17.7l12.1-35.9
	c2.5-7.3,10.4-11.2,17.7-8.8l145.1,48.8c7.3,2.5,11.2,10.4,8.8,17.7L116.6,416.3z"/>
<path class="st3" d="M108.6,530.3c2.4,7.3-1.5,15.2-8.8,17.7L-3.6,584.7c-7.3,2.4-15.2-1.5-17.7-8.8l-12.1-36
	c-2.4-7.3,1.5-15.2,8.8-17.7l103.4-36.7c7.3-2.4,15.2,1.5,17.7,8.8L108.6,530.3z"/>
<path class="st3" d="M80.2,198.2c-6.1,4.7-7.2,13.5-2.5,19.6l65.6,88c4.7,6.1,13.5,7.2,19.6,2.5l30-23.2c6.1-4.7,7.2-13.5,2.5-19.6
	l-65.6-88.1c-4.7-6.1-13.5-7.2-19.6-2.5L80.2,198.2z"/>
<path class="st3" d="M657.1,416.3c2.5,7.3,10.4,11.2,17.7,8.8L820,376.3c7.3-2.4,11.2-10.4,8.8-17.7l-12.1-36
	c-2.5-7.3-10.4-11.2-17.7-8.8l-145.2,48.9c-7.3,2.5-11.2,10.4-8.8,17.7L657.1,416.3z"/>
<path class="st3" d="M665,530.3c-2.5,7.3,1.5,15.2,8.8,17.7l103.5,36.7c7.3,2.4,15.2-1.5,17.7-8.8l12.1-36
	c2.5-7.3-1.5-15.2-8.8-17.7l-103.4-36.7c-7.3-2.4-15.2,1.5-17.7,8.8L665,530.3z"/>
<path class="st3" d="M693.5,198.2c6.1,4.7,7.2,13.5,2.5,19.6l-65.6,88c-4.7,6.1-13.5,7.2-19.6,2.5l-30-23.2
	c-6.1-4.7-7.2-13.5-2.5-19.6l65.6-88.1c4.7-6.1,13.5-7.2,19.6-2.5L693.5,198.2z"/>
</svg>
